<?xml version="1.0" standalone="no"?>
<!DOCTYPE svg PUBLIC "-//W3C//DTD SVG 20010904//EN"
 "http://www.w3.org/TR/2001/REC-SVG-20010904/DTD/svg10.dtd">
<svg version="1.0" xmlns="http://www.w3.org/2000/svg"
 width="1130.000000pt" height="1015.000000pt" viewBox="0 0 1130.000000 1015.000000"
 preserveAspectRatio="xMidYMid meet">

<g transform="translate(0.000000,1015.000000) scale(0.100000,-0.100000)"
fill="#000000" stroke="none">
<path d="M4960 8992 c-36 -2 -69 -7 -74 -12 -13 -13 93 -20 414 -26 162 -4
391 -9 508 -11 118 -3 218 -1 222 3 5 5 -57 8 -141 8 -82 -1 -152 2 -155 7 -8
14 -62 11 -67 -3 -4 -10 -7 -10 -14 -1 -6 8 -45 13 -116 14 -59 1 -135 4 -168
8 -50 6 -59 5 -54 -7 4 -11 2 -12 -7 -5 -7 6 -23 9 -35 7 -13 -2 -23 1 -23 6
0 7 -6 7 -19 1 -10 -6 -21 -8 -24 -5 -10 10 -85 10 -79 -1 3 -5 -1 -4 -10 2
-8 7 -17 11 -19 8 -3 -2 -20 -1 -39 3 -19 4 -64 6 -100 4z"/>
<path d="M6070 8944 c-23 -13 -19 -14 45 -13 55 1 62 3 35 8 -20 4 -40 10 -45
12 -6 3 -21 0 -35 -7z"/>
<path d="M5561 8549 c-109 -12 -228 -41 -349 -85 -323 -117 -582 -340 -779
-669 -110 -184 -180 -399 -208 -640 -19 -164 -19 -236 1 -405 85 -748 529
-1339 1171 -1559 190 -65 262 -75 538 -75 256 -1 303 4 494 50 297 72 591 249
796 479 40 46 82 96 91 110 17 26 17 27 -18 62 l-36 36 -103 -108 c-281 -291
-571 -438 -962 -486 -121 -14 -364 -7 -462 15 -416 93 -765 374 -967 781 -191
384 -264 919 -178 1305 43 195 131 403 226 536 219 307 537 491 900 522 256
22 526 -24 727 -125 321 -160 565 -443 677 -788 163 -497 97 -991 -167 -1259
-64 -65 -147 -116 -188 -116 -69 0 -131 94 -145 218 -8 72 2 441 30 1057 5
121 10 232 10 246 l0 26 -107 -4 c-60 -2 -127 -6 -150 -9 -41 -5 -41 -5 -47
-52 -3 -26 -8 -96 -12 -155 l-7 -109 -44 84 c-104 195 -245 269 -459 240 -234
-31 -445 -215 -569 -497 -74 -167 -89 -243 -90 -450 0 -166 2 -188 27 -278 69
-245 161 -391 310 -489 166 -111 413 -111 569 1 81 58 163 171 207 286 10 28
22 59 26 70 7 16 12 9 28 -39 34 -103 99 -182 193 -233 71 -38 193 -44 284
-13 369 124 569 686 449 1265 -70 341 -192 591 -392 802 -232 246 -512 394
-836 443 -103 15 -378 21 -479 9z m485 -1000 c65 -17 133 -86 166 -170 113
-281 78 -845 -71 -1155 -66 -139 -145 -204 -246 -204 -278 0 -377 514 -220
1139 61 243 141 363 259 391 46 11 62 11 112 -1z"/>
<path d="M8215 7573 c-33 -2 -64 -8 -68 -12 -4 -4 60 -63 143 -130 l152 -122
211 -3 c222 -4 352 -19 481 -57 326 -96 525 -291 582 -571 15 -73 16 -99 5
-210 -14 -152 -28 -218 -87 -401 -65 -203 -144 -381 -273 -614 -22 -40 -36
-73 -32 -73 13 0 113 164 196 323 131 251 201 458 231 677 30 221 -6 502 -83
658 -98 196 -257 338 -478 427 -209 84 -347 107 -665 110 -140 1 -282 1 -315
-2z"/>
<path d="M8081 7402 c9 -39 25 -124 58 -312 12 -63 41 -223 65 -355 62 -331
95 -515 98 -545 3 -21 14 -10 82 80 44 58 125 164 181 235 55 72 120 155 143
187 24 31 50 59 58 62 34 13 -8 137 -63 187 -31 29 -280 228 -442 354 -57 44
-115 90 -129 103 -15 13 -34 27 -43 32 -15 8 -16 5 -8 -28z"/>
<path d="M2660 6841 c-82 -82 -415 -405 -657 -638 -106 -101 -131 -174 -101
-287 11 -40 15 -45 47 -51 41 -7 172 -50 216 -70 38 -18 407 -170 585 -241 74
-30 144 -59 155 -64 11 -5 49 -21 85 -36 36 -15 79 -33 96 -40 l32 -13 -18 82
c-20 86 -87 377 -120 512 -10 44 -30 130 -44 190 -14 61 -40 171 -57 245 -36
155 -46 197 -84 370 -15 69 -31 128 -34 131 -3 3 -49 -37 -101 -90z"/>
<path d="M7729 5433 c-13 -16 -12 -17 4 -4 9 7 17 15 17 17 0 8 -8 3 -21 -13z"/>
<path d="M7699 5393 c-13 -16 -12 -17 4 -4 16 13 21 21 13 21 -2 0 -10 -8 -17
-17z"/>
<path d="M7659 5343 c-13 -16 -12 -17 4 -4 9 7 17 15 17 17 0 8 -8 3 -21 -13z"/>
<path d="M7629 5303 c-13 -16 -12 -17 4 -4 9 7 17 15 17 17 0 8 -8 3 -21 -13z"/>
<path d="M7599 5263 c-13 -16 -12 -17 4 -4 9 7 17 15 17 17 0 8 -8 3 -21 -13z"/>
<path d="M7559 5213 c-29 -35 -41 -53 -36 -53 2 0 17 16 31 35 28 36 31 49 5
18z"/>
<path d="M7463 5089 c-61 -77 -114 -144 -238 -304 -55 -71 -117 -148 -138
-171 -21 -23 -34 -45 -29 -48 5 -3 79 85 164 197 86 111 188 244 227 295 39
50 69 92 67 92 -3 0 -27 -27 -53 -61z"/>
<path d="M6114 4487 c-32 -34 -79 -87 -104 -117 -25 -30 -58 -67 -74 -83 -20
-20 -26 -31 -18 -39 13 -13 8 -20 -332 -462 -34 -43 -70 -90 -81 -105 -10 -14
-59 -76 -107 -137 -105 -133 -60 -120 -468 -129 -157 -4 -307 -8 -335 -10 -27
-2 -189 -5 -358 -5 l-308 -1 7 -22 c3 -12 3 -19 -2 -14 -4 4 -16 -14 -26 -40
-20 -52 -24 -88 -9 -78 5 3 13 0 17 -7 4 -7 4 -10 -1 -6 -11 10 -45 -10 -45
-27 0 -7 -4 -15 -10 -17 -9 -3 122 -145 379 -412 l96 -100 -140 -68 c-257
-124 -620 -279 -842 -358 -281 -101 -508 -166 -519 -148 -3 5 -30 7 -59 6 -29
-2 -51 -6 -49 -9 2 -4 -6 -9 -18 -12 -12 -4 -25 -2 -28 2 -3 5 -23 8 -45 7
l-40 -1 3 -43 c2 -23 1 -42 -1 -42 -3 0 -39 -7 -79 -16 -87 -18 -391 -64 -396
-59 -8 8 -22 139 -22 215 0 265 77 569 226 898 15 31 13 42 -19 175 -20 78
-66 266 -103 417 -113 465 -129 525 -139 525 -12 0 -157 -153 -269 -285 -445
-521 -703 -953 -798 -1335 -25 -105 -31 -319 -9 -395 18 -64 67 -157 106 -203
55 -64 108 -99 581 -382 247 -147 523 -313 614 -369 264 -160 378 -211 607
-271 92 -24 329 -55 422 -55 27 0 53 -5 56 -10 3 -6 -49 -87 -116 -182 -67
-94 -135 -194 -150 -222 -32 -60 -58 -145 -61 -203 -3 -65 8 -61 15 5 12 113
62 200 265 467 l107 140 65 2 c597 20 1273 184 1964 476 l99 41 176 -182 176
-183 20 24 c11 14 97 117 190 229 234 279 244 293 424 533 339 455 711 1029
1014 1565 33 58 68 119 79 137 l19 32 -76 57 -75 57 -143 -22 c-363 -56 -464
-70 -782 -105 -333 -38 -576 -59 -995 -86 -199 -13 -233 -13 -227 3 2 6 60 86
128 177 68 91 243 325 388 520 146 195 276 367 290 383 13 15 20 27 14 27 -5
0 -36 -28 -69 -63z m-2134 -1147 c0 -5 -2 -10 -4 -10 -3 0 -8 5 -11 10 -3 6
-1 10 4 10 6 0 11 -4 11 -10z m40 -20 c0 -5 -4 -10 -10 -10 -5 0 -10 5 -10 10
0 6 5 10 10 10 6 0 10 -4 10 -10z m8 -45 c-3 -3 -9 2 -12 12 -6 14 -5 15 5 6
7 -7 10 -15 7 -18z m-43 -18 c-11 -6 -21 -5 -28 3 -9 8 -7 9 7 4 13 -5 17 -4
12 4 -5 8 -2 10 10 5 15 -6 15 -7 -1 -16z m-1208 -1173 c-3 -3 -12 -4 -19 -1
-8 3 -5 6 6 6 11 1 17 -2 13 -5z"/>
</g>
</svg>
