<?xml version="1.0" encoding="iso-8859-1"?>
<!-- Generator: Adobe Illustrator 19.0.0, SVG Export Plug-In . SVG Version: 6.00 Build 0)  -->
<svg version="1.1" id="Capa_1" xmlns="http://www.w3.org/2000/svg" xmlns:xlink="http://www.w3.org/1999/xlink" x="0px" y="0px"
	 viewBox="0 0 512 512" style="enable-background:new 0 0 512 512;" xml:space="preserve">
<g>
	<g>
		<g>
			<path d="M187.702,212.651c-7.8,0-15.6,2.8-15.6,9.4V349.25c0,6.399,7.8,9.6,15.6,9.6s15.6-3.202,15.6-9.6V222.051
				C203.302,215.452,195.502,212.651,187.702,212.651z"/>
			<path d="M450.143,147.279L308.721,5.857C304.97,2.107,299.883,0,294.578,0H76C64.954,0,56,8.954,56,20v472
				c0,11.046,8.954,20,20,20h360c11.046,0,20-8.954,20-20V161.422C456,156.117,453.893,151.03,450.143,147.279z M416,472H96V40
				h190.294L416,169.706V472z"/>
			<path d="M234.7,304.45v14c0,22.199,16.2,42.4,34.8,42.4c12.799,0,23.999-7.801,27.999-16v4.4c0,4.799,6.2,9.6,13.8,9.6
				c8.8,0,15.199-4.801,15.199-9.6v-130.6c0-5.599-6.4-9.397-15.2-9.397s-15.8,3.798-15.8,9.398v59
				c-4.2-7.801-13.2-15.199-25.399-15.199C250.5,262.452,234.7,281.452,234.7,304.45z M295.498,304.448v16.6
				c0,3.401-6.799,12.801-15.399,12.801c-8,0-14.4-7.599-14.4-15.4h-0.001v-14.001c0-7.6,6.401-15,14.6-15
				C287.498,289.448,295.498,295.05,295.498,304.448z"/>
		</g>
	</g>
</g>
<g>
</g>
<g>
</g>
<g>
</g>
<g>
</g>
<g>
</g>
<g>
</g>
<g>
</g>
<g>
</g>
<g>
</g>
<g>
</g>
<g>
</g>
<g>
</g>
<g>
</g>
<g>
</g>
<g>
</g>
</svg>
