<?xml version="1.0" standalone="no"?>
<!DOCTYPE svg PUBLIC "-//W3C//DTD SVG 20010904//EN"
 "http://www.w3.org/TR/2001/REC-SVG-20010904/DTD/svg10.dtd">
<svg version="1.0" xmlns="http://www.w3.org/2000/svg"
 width="1000.000000pt" height="1000.000000pt" viewBox="0 0 1000.000000 1000.000000"
 preserveAspectRatio="xMidYMid meet">

<g transform="translate(0.000000,1000.000000) scale(0.100000,-0.100000)"
fill="#000000" stroke="none">
<path d="M4263 8603 c26 -2 68 -2 95 0 26 2 4 3 -48 3 -52 0 -74 -1 -47 -3z"/>
<path d="M4095 8581 c-81 -23 -182 -74 -238 -120 -25 -21 -92 -92 -148 -157
-56 -65 -132 -152 -167 -192 -35 -40 -62 -75 -60 -78 3 -2 82 86 177 196 94
110 191 214 214 231 65 48 195 107 272 123 39 8 57 14 40 14 -16 1 -57 -7 -90
-17z"/>
<path d="M4435 8590 c17 -4 39 -8 50 -8 16 0 15 2 -5 8 -14 4 -36 8 -50 8 -22
0 -22 -1 5 -8z"/>
<path d="M4520 8573 c27 -10 292 -130 403 -182 59 -27 107 -48 107 -45 0 10
-492 234 -512 233 -8 0 -7 -3 2 -6z"/>
<path d="M4240 8315 c-133 -30 -289 -110 -355 -184 l-19 -22 24 5 c14 4 194
40 400 82 206 41 376 77 378 79 2 2 -27 13 -65 25 -89 29 -270 36 -363 15z"/>
<path d="M6710 7565 c0 -7 61 -37 66 -33 2 3 -12 12 -31 21 -19 9 -35 15 -35
12z"/>
<path d="M6880 7480 c19 -11 40 -19 45 -19 6 0 -6 8 -25 19 -19 11 -39 19 -45
19 -5 0 6 -8 25 -19z"/>
<path d="M6790 7293 c1 -13 116 -412 121 -417 5 -5 193 252 196 269 2 5 -65
42 -148 80 -174 81 -169 79 -169 68z"/>
<path d="M7320 7116 c0 -4 7 -31 15 -59 157 -554 433 -1529 581 -2054 104
-370 190 -668 192 -663 2 5 -10 58 -27 117 -347 1238 -750 2655 -757 2662 -2
2 -4 1 -4 -3z"/>
<path d="M2051 6382 c-63 -70 -102 -116 -87 -102 46 41 209 220 205 225 -2 2
-56 -54 -118 -123z"/>
<path d="M1890 6205 c-24 -25 -42 -45 -39 -45 3 0 25 20 49 45 24 25 42 45 39
45 -3 0 -25 -20 -49 -45z"/>
<path d="M2107 6044 c-147 -163 -148 -164 -122 -174 194 -74 407 -151 410
-148 3 3 -132 479 -138 483 -1 1 -69 -71 -150 -161z"/>
<path d="M5102 5959 c141 -220 238 -379 238 -388 0 -28 -704 -496 -1130 -751
-514 -307 -1077 -594 -1521 -773 -147 -60 -430 -160 -435 -154 -2 2 -105 361
-229 798 -123 437 -242 853 -264 924 -22 72 -42 139 -44 150 -5 19 -5 19 -6
-1 -1 -20 75 -306 184 -687 l56 -199 -88 -80 c-404 -370 -623 -683 -623 -888
0 -69 14 -98 147 -300 186 -282 408 -547 520 -621 125 -81 283 -128 503 -149
63 -6 117 -14 121 -18 3 -4 38 -122 78 -262 83 -291 100 -336 143 -376 l31
-29 -34 45 c-35 46 -48 83 -93 260 -13 52 -40 151 -60 220 -20 69 -36 130 -36
136 0 7 46 14 133 18 72 4 184 14 247 22 63 7 119 14 124 14 4 0 2 -10 -6 -22
-50 -76 -226 -393 -246 -441 -24 -59 -32 -161 -15 -191 5 -9 7 14 5 57 -4 72
-4 73 59 192 34 66 101 185 148 264 l86 145 160 32 c201 40 399 90 608 154
219 66 304 96 292 102 -6 2 -4 3 4 1 14 -4 141 35 141 43 0 2 -10 2 -23 -1
-19 -5 -23 -2 -23 17 0 33 -13 224 -30 428 -8 96 -14 178 -14 182 0 5 -9 4
-19 -2 -11 -5 -23 -10 -28 -10 -4 1 18 14 50 31 32 16 63 27 69 23 6 -4 8 -3
5 3 -4 6 8 17 26 24 118 49 654 343 957 526 312 189 702 442 695 453 -2 3 1 7
8 7 16 0 127 74 127 84 0 5 -4 9 -8 9 -4 0 -9 11 -10 25 -1 14 -11 34 -22 45
-11 11 -20 25 -20 30 0 6 -8 18 -17 28 -10 10 -27 36 -38 58 -10 21 -31 57
-45 79 -51 78 -90 146 -96 171 -3 13 -10 24 -15 24 -5 0 -18 18 -29 40 -11 22
-24 40 -29 40 -5 0 -12 12 -16 27 -3 15 -22 49 -41 75 -19 27 -34 53 -34 58 0
5 -15 31 -34 58 -19 26 -37 59 -41 74 -4 15 -15 30 -26 33 -10 4 -18 9 -18 13
3 18 -2 33 -9 28 -4 -2 -14 -1 -22 5 -22 13 -15 12 287 -31 478 -69 506 -73
570 -74 33 -1 59 -4 56 -9 -2 -4 15 -5 39 -1 24 3 38 2 31 -3 -6 -4 22 -8 65
-9 l77 -1 -110 19 c-60 10 -122 17 -137 15 -15 -2 -25 -1 -23 3 2 3 -60 16
-138 28 -78 12 -365 56 -637 97 -272 42 -506 79 -519 82 -23 6 -22 4 11 -48z
m68 -49 c6 -11 8 -20 6 -20 -3 0 -10 9 -16 20 -6 11 -8 20 -6 20 3 0 10 -9 16
-20z m265 6 c39 -8 61 -14 51 -15 -18 -1 -18 -2 -3 -19 10 -10 17 -23 17 -28
0 -5 9 -16 20 -24 12 -9 18 -21 14 -32 -3 -12 0 -18 10 -18 9 0 16 -7 16 -16
0 -9 10 -25 21 -35 18 -16 20 -21 9 -34 -8 -9 -9 -15 -4 -14 22 4 34 -2 34
-17 0 -9 10 -25 22 -36 19 -16 20 -21 8 -29 -12 -7 -11 -10 8 -15 12 -4 22
-13 22 -21 0 -9 9 -24 21 -34 11 -10 18 -23 14 -29 -3 -5 1 -13 9 -16 9 -3 16
-14 16 -23 0 -9 9 -23 20 -31 12 -9 18 -21 14 -32 -3 -12 0 -18 10 -18 9 0 16
-7 16 -16 0 -9 10 -25 21 -35 18 -16 20 -21 9 -34 -8 -9 -9 -15 -4 -14 22 4
34 -2 34 -17 0 -9 10 -25 22 -36 19 -16 20 -21 8 -29 -12 -7 -11 -10 8 -15 12
-4 22 -13 22 -21 0 -9 9 -24 21 -34 11 -10 18 -23 14 -29 -3 -5 1 -13 9 -16 9
-3 16 -14 16 -23 0 -9 9 -23 20 -31 12 -9 18 -21 14 -32 -3 -12 0 -18 10 -18
25 0 21 -51 -4 -57 -11 -3 -20 -9 -20 -14 0 -20 -18 -7 -30 21 -7 17 -16 30
-21 30 -5 0 -9 4 -9 9 0 12 -66 125 -83 143 -13 14 -40 70 -37 77 1 2 -3 7 -8
10 -10 7 -60 83 -79 121 -7 14 -17 32 -23 40 -5 8 -26 43 -45 77 -19 34 -41
68 -48 75 -13 14 -34 57 -35 72 0 5 -5 12 -10 15 -10 7 -60 83 -79 121 -7 14
-18 34 -25 45 -45 70 -77 125 -72 125 15 0 -26 29 -47 33 -18 3 -19 4 -4 5 11
0 52 -5 90 -12z m105 -56 c0 -5 -5 -10 -11 -10 -5 0 -7 5 -4 10 3 6 8 10 11
10 2 0 4 -4 4 -10z m-150 -344 c0 -2 -8 -10 -17 -17 -16 -13 -17 -12 -4 4 13
16 21 21 21 13z m-1831 -1140 c-2 -2 -15 -9 -29 -15 -24 -11 -24 -11 -6 3 16
13 49 24 35 12z m-69 -36 c-8 -5 -19 -10 -25 -10 -5 0 -3 5 5 10 8 5 20 10 25
10 6 0 3 -5 -5 -10z m-1317 -246 c32 -114 55 -210 50 -214 -16 -14 -382 -104
-390 -96 -7 7 32 97 90 210 59 115 176 306 187 306 3 0 31 -93 63 -206z m1932
-304 c-3 -5 -12 -10 -18 -10 -7 0 -6 4 3 10 19 12 23 12 15 0z m125 -600 c-8
-5 -19 -10 -25 -10 -5 0 -3 5 5 10 8 5 20 10 25 10 6 0 3 -5 -5 -10z"/>
<path d="M1702 5815 c0 -16 2 -22 5 -12 2 9 2 23 0 30 -3 6 -5 -1 -5 -18z"/>
<path d="M6683 5753 c9 -2 23 -2 30 0 6 3 -1 5 -18 5 -16 0 -22 -2 -12 -5z"/>
<path d="M6748 5743 c6 -2 18 -2 25 0 6 3 1 5 -13 5 -14 0 -19 -2 -12 -5z"/>
<path d="M6886 4942 c5 -5 128 -67 274 -137 332 -161 710 -356 815 -421 57
-35 86 -61 102 -89 25 -44 32 -41 9 3 -38 72 -113 116 -730 423 -413 207 -501
247 -470 221z"/>
<path d="M8112 4300 c0 -14 2 -19 5 -12 2 6 2 18 0 25 -3 6 -5 1 -5 -13z"/>
<path d="M6220 4076 c0 -20 145 -288 168 -308 l24 -23 -20 35 c-10 19 -48 87
-82 150 -69 125 -90 159 -90 146z"/>
<path d="M7830 4020 c-8 -5 -10 -10 -5 -10 6 0 17 5 25 10 8 5 11 10 5 10 -5
0 -17 -5 -25 -10z"/>
<path d="M7735 3985 c-33 -13 -960 -373 -2060 -798 -2222 -861 -2526 -979
-2521 -984 4 -5 394 144 1196 455 382 149 970 377 1305 507 2151 834 2173 843
2150 844 -5 0 -37 -11 -70 -24z"/>
<path d="M4660 3350 c-8 -5 -10 -10 -5 -10 6 0 17 5 25 10 8 5 11 10 5 10 -5
0 -17 -5 -25 -10z"/>
<path d="M4585 3319 c-22 -10 -29 -16 -15 -13 28 7 80 33 65 33 -5 0 -28 -9
-50 -20z"/>
<path d="M4475 3279 c-54 -22 -75 -36 -35 -24 37 12 107 44 95 44 -5 0 -32 -9
-60 -20z"/>
<path d="M4352 3233 c-24 -8 -41 -17 -39 -19 4 -5 97 26 97 32 0 6 -11 4 -58
-13z"/>
<path d="M3110 2190 c-8 -5 -10 -10 -5 -10 6 0 17 5 25 10 8 5 11 10 5 10 -5
0 -17 -5 -25 -10z"/>
</g>
</svg>
